<svg xmlns="http://www.w3.org/2000/svg" viewBox="0 0 400 300" fill="none">
  <!-- Monitor -->
  <rect x="90" y="30" width="220" height="160" rx="8" fill="#1A1A1A"/>
  <rect x="100" y="40" width="200" height="140" rx="4" fill="#0D1117"/>
  <!-- Contenido monitor -->
  <rect x="110" y="52" width="80" height="8" rx="2" fill="#F06A00" opacity="0.9"/>
  <rect x="110" y="68" width="130" height="4" rx="2" fill="#333"/>
  <rect x="110" y="78" width="100" height="4" rx="2" fill="#333"/>
  <rect x="110" y="88" width="120" height="4" rx="2" fill="#333"/>
  <rect x="110" y="104" width="60" height="20" rx="3" fill="#F06A00" opacity="0.2"/>
  <rect x="180" y="104" width="60" height="20" rx="3" fill="#333"/>
  <rect x="250" y="104" width="40" height="20" rx="3" fill="#333"/>
  <rect x="110" y="132" width="180" height="1" fill="#222"/>
  <rect x="110" y="142" width="140" height="4" rx="2" fill="#333"/>
  <rect x="110" y="152" width="160" height="4" rx="2" fill="#333"/>
  <rect x="110" y="162" width="120" height="4" rx="2" fill="#333"/>
  <!-- Pie monitor -->
  <rect x="185" y="190" width="30" height="25" rx="2" fill="#222"/>
  <rect x="160" y="213" width="80" height="8" rx="4" fill="#1A1A1A"/>
  <!-- Torre PC -->
  <rect x="290" y="80" width="55" height="160" rx="6" fill="#2A2A2A"/>
  <rect x="298" y="90" width="39" height="28" rx="3" fill="#0D1117"/>
  <!-- Botón power -->
  <circle cx="317" cy="130" r="6" fill="#F06A00" opacity="0.8"/>
  <!-- Ranuras disco -->
  <rect x="298" y="145" width="39" height="6" rx="2" fill="#1A1A1A"/>
  <rect x="298" y="158" width="39" height="6" rx="2" fill="#1A1A1A"/>
  <!-- USB ports -->
  <rect x="302" y="172" width="8" height="5" rx="1" fill="#333"/>
  <rect x="314" y="172" width="8" height="5" rx="1" fill="#333"/>
  <!-- Ventilación -->
  <rect x="298" y="200" width="5" height="30" rx="2" fill="#222"/>
  <rect x="307" y="200" width="5" height="30" rx="2" fill="#222"/>
  <rect x="316" y="200" width="5" height="30" rx="2" fill="#222"/>
  <rect x="325" y="200" width="5" height="30" rx="2" fill="#222"/>
  <!-- Cable -->
  <path d="M 290 160 Q 280 160 275 180 Q 270 200 280 220" stroke="#333" stroke-width="2" fill="none"/>
  <!-- Base torre -->
  <rect x="288" y="238" width="59" height="6" rx="3" fill="#1A1A1A"/>
</svg>
