<svg xmlns="http://www.w3.org/2000/svg" viewBox="0 0 400 300" fill="none">
  <!-- Rack servidor -->
  <rect x="80" y="40" width="240" height="220" rx="6" fill="#1A1A1A"/>
  <rect x="86" y="46" width="228" height="208" rx="4" fill="#111"/>
  <!-- Unidades 1U -->
  <!-- Unidad 1 -->
  <rect x="92" y="52" width="216" height="36" rx="3" fill="#1E1E1E"/>
  <rect x="92" y="52" width="4" height="36" rx="2" fill="#F06A00"/>
  <circle cx="294" cy="70" r="5" fill="#22C55E"/>
  <circle cx="308" cy="70" r="5" fill="#22C55E"/>
  <rect x="104" y="62" width="60" height="4" rx="2" fill="#333"/>
  <rect x="104" y="70" width="40" height="4" rx="2" fill="#F06A00" opacity="0.5"/>
  <rect x="170" y="60" width="100" height="16" rx="2" fill="#0D0D0D"/>
  <rect x="174" y="64" width="16" height="8" rx="1" fill="#333"/>
  <rect x="194" y="64" width="16" height="8" rx="1" fill="#333"/>
  <rect x="214" y="64" width="16" height="8" rx="1" fill="#333"/>
  <rect x="234" y="64" width="16" height="8" rx="1" fill="#F06A00" opacity="0.3"/>
  <rect x="254" y="64" width="16" height="8" rx="1" fill="#333"/>
  <!-- Unidad 2 -->
  <rect x="92" y="96" width="216" height="36" rx="3" fill="#1E1E1E"/>
  <rect x="92" y="96" width="4" height="36" rx="2" fill="#F06A00"/>
  <circle cx="294" cy="114" r="5" fill="#22C55E"/>
  <circle cx="308" cy="114" r="5" fill="#EAB308"/>
  <rect x="104" y="106" width="60" height="4" rx="2" fill="#333"/>
  <rect x="104" y="114" width="40" height="4" rx="2" fill="#F06A00" opacity="0.5"/>
  <rect x="170" y="104" width="100" height="16" rx="2" fill="#0D0D0D"/>
  <rect x="174" y="108" width="16" height="8" rx="1" fill="#333"/>
  <rect x="194" y="108" width="16" height="8" rx="1" fill="#333"/>
  <rect x="214" y="108" width="16" height="8" rx="1" fill="#333"/>
  <rect x="234" y="108" width="16" height="8" rx="1" fill="#333"/>
  <rect x="254" y="108" width="16" height="8" rx="1" fill="#333"/>
  <!-- Unidad 3 - Switch -->
  <rect x="92" y="140" width="216" height="28" rx="3" fill="#151515"/>
  <rect x="92" y="140" width="4" height="28" rx="2" fill="#3B82F6"/>
  <rect x="104" y="148" width="180" height="12" rx="2" fill="#0D0D0D"/>
  <!-- Puertos ethernet -->
  <?php for($i=0;$i<12;$i++): ?>
  <rect x="<?= 108+$i*14 ?>" y="152" width="10" height="8" rx="1" fill="#1A1A1A"/>
  <?php endfor; ?>
  <rect x="108" y="152" width="10" height="8" rx="1" fill="#1A1A1A"/>
  <rect x="122" y="152" width="10" height="8" rx="1" fill="#22C55E" opacity="0.5"/>
  <rect x="136" y="152" width="10" height="8" rx="1" fill="#22C55E" opacity="0.5"/>
  <rect x="150" y="152" width="10" height="8" rx="1" fill="#22C55E" opacity="0.5"/>
  <rect x="164" y="152" width="10" height="8" rx="1" fill="#1A1A1A"/>
  <rect x="178" y="152" width="10" height="8" rx="1" fill="#22C55E" opacity="0.5"/>
  <rect x="192" y="152" width="10" height="8" rx="1" fill="#1A1A1A"/>
  <rect x="206" y="152" width="10" height="8" rx="1" fill="#1A1A1A"/>
  <rect x="220" y="152" width="10" height="8" rx="1" fill="#22C55E" opacity="0.5"/>
  <rect x="234" y="152" width="10" height="8" rx="1" fill="#1A1A1A"/>
  <rect x="248" y="152" width="10" height="8" rx="1" fill="#1A1A1A"/>
  <rect x="262" y="152" width="10" height="8" rx="1" fill="#1A1A1A"/>
  <!-- Espacio vacío -->
  <rect x="92" y="176" width="216" height="20" rx="3" fill="#161616"/>
  <rect x="92" y="204" width="216" height="20" rx="3" fill="#161616"/>
  <!-- Ventilación frontal -->
  <rect x="92" y="232" width="216" height="16" rx="3" fill="#1A1A1A"/>
  <rect x="100" y="236" width="200" height="8" rx="2" fill="#111"/>
  <!-- Líneas ventilación -->
  <rect x="104" y="238" width="192" height="2" rx="1" fill="#222"/>
  <rect x="104" y="242" width="192" height="2" rx="1" fill="#222"/>
</svg>
