<svg xmlns="http://www.w3.org/2000/svg" viewBox="0 0 400 300" fill="none">
  <!-- Marco monitor -->
  <rect x="60" y="30" width="280" height="190" rx="10" fill="#1A1A1A"/>
  <rect x="72" y="42" width="256" height="166" rx="4" fill="#0D1117"/>
  <!-- Contenido pantalla - dashboard -->
  <rect x="82" y="52" width="100" height="10" rx="3" fill="#F06A00" opacity="0.9"/>
  <rect x="82" y="70" width="236" height="1" fill="#222"/>
  <!-- Gráfica barras -->
  <rect x="90" y="90" width="20" height="60" rx="2" fill="#F06A00" opacity="0.3"/>
  <rect x="118" y="110" width="20" height="40" rx="2" fill="#F06A00" opacity="0.5"/>
  <rect x="146" y="80" width="20" height="70" rx="2" fill="#F06A00" opacity="0.7"/>
  <rect x="174" y="100" width="20" height="50" rx="2" fill="#F06A00" opacity="0.5"/>
  <rect x="202" y="75" width="20" height="75" rx="2" fill="#F06A00" opacity="0.9"/>
  <rect x="230" y="95" width="20" height="55" rx="2" fill="#F06A00" opacity="0.6"/>
  <!-- Cards derecha -->
  <rect x="264" y="80" width="76" height="32" rx="3" fill="#111"/>
  <rect x="270" y="86" width="40" height="6" rx="2" fill="#F06A00" opacity="0.6"/>
  <rect x="270" y="98" width="60" height="4" rx="2" fill="#333"/>
  <rect x="264" y="118" width="76" height="32" rx="3" fill="#111"/>
  <rect x="270" y="124" width="40" height="6" rx="2" fill="#444"/>
  <rect x="270" y="136" width="60" height="4" rx="2" fill="#333"/>
  <!-- Linea inferior -->
  <rect x="82" y="162" width="236" height="1" fill="#222"/>
  <rect x="82" y="170" width="160" height="4" rx="2" fill="#333"/>
  <rect x="82" y="180" width="120" height="4" rx="2" fill="#333"/>
  <!-- Pie y base -->
  <rect x="183" y="220" width="34" height="20" rx="2" fill="#222"/>
  <rect x="155" y="238" width="90" height="10" rx="5" fill="#1A1A1A"/>
  <!-- Botón power -->
  <circle cx="340" cy="210" r="5" fill="#F06A00" opacity="0.6"/>
</svg>
